<mxfile host="app.diagrams.net" modified="2024-05-30T06:55:55.913Z" agent="Mozilla/5.0 (Windows NT 10.0; Win64; x64) AppleWebKit/537.36 (KHTML, like Gecko) Chrome/123.0.0.0 Safari/537.36" version="24.4.8" etag="xF5QCT8QUPh83MICKuJo" type="github">
  <diagram name="Page-1" id="YIiKUKe6jH8Uo8NAlIJo">
    <mxGraphModel>
      <root>
        <mxCell id="0" />
        <mxCell id="1" parent="0" />
      </root>
    </mxGraphModel>
  </diagram>
</mxfile>
